<svg version="1.1" id="Layer_1" xmlns="http://www.w3.org/2000/svg" xmlns:xlink="http://www.w3.org/1999/xlink" x="0px" y="0px"
	 width="100%" viewBox="0 0 494 332" enable-background="new 0 0 494 332" xml:space="preserve">
<path fill="#ED1C24" opacity="1.000000" stroke="none" 
	d="
M495.000000,164.000000 
	C495.000000,165.066788 495.000000,166.133575 494.777405,167.260071 
	C491.762268,170.328415 489.062653,173.429886 486.163269,176.331696 
	C445.937988,216.590103 405.683105,256.818909 365.443878,297.063385 
	C362.452332,300.055359 359.551666,303.138123 356.563080,306.133118 
	C348.105377,314.609009 339.617706,323.055054 331.179749,331.550507 
	C330.908386,331.823669 331.050568,332.507568 331.000000,333.000000 
	C329.933197,333.000000 328.866425,333.000000 327.739746,332.781799 
	C318.643738,323.064331 309.716980,313.458069 300.548035,304.088837 
	C283.105652,286.265472 265.524780,268.577606 248.001266,250.375290 
	C248.000763,216.333633 248.000412,182.750183 248.464752,149.098816 
	C261.183807,149.030899 273.438171,149.030899 285.998535,149.030899 
	C285.998535,170.646118 286.174927,191.610519 285.907043,212.569214 
	C285.807343,220.366379 285.462891,227.866058 293.169189,232.671555 
	C293.306580,232.757248 293.407074,232.903290 293.521851,233.023926 
	C304.533508,244.596100 315.544922,256.168549 326.825653,268.024017 
	C355.266510,240.227997 383.547241,212.588516 411.827942,184.949036 
	C411.581177,184.559158 411.334381,184.169281 411.087585,183.779404 
	C389.511353,183.779404 367.935120,183.779404 346.384888,183.779404 
	C346.384888,172.314484 346.384888,161.270386 346.384888,149.764252 
	C369.622559,149.764252 392.479767,149.764252 412.360260,149.764252 
	C384.638702,122.033081 355.671356,93.055656 326.663147,64.037376 
	C325.407806,65.036530 322.928070,66.704262 320.809570,68.746674 
	C308.375488,80.734177 295.956879,92.740211 283.734924,104.942154 
	C282.212524,106.462082 281.215851,109.147766 281.121552,111.342514 
	C280.802826,118.761650 281.000061,126.202965 281.000061,133.833923 
	C269.583740,133.833923 258.792358,133.833923 248.000793,133.375671 
	C248.000443,115.000511 248.000229,97.083580 248.306213,79.015228 
	C272.910431,54.579041 297.227112,30.312891 321.452667,5.956057 
	C322.700928,4.701030 323.168793,2.669832 324.000000,1.000000 
	C325.388885,1.000000 326.777802,1.000000 328.243622,1.218448 
	C336.417694,9.662622 344.361481,18.046530 352.646698,26.078239 
	C366.205414,39.222092 380.043457,52.077480 393.637604,65.185310 
	C397.577515,68.984276 400.889191,73.434959 404.830139,77.232697 
	C417.709351,89.643723 430.860687,101.773552 443.676025,114.249161 
	C450.603821,120.993309 456.914459,128.367996 463.767059,135.193619 
	C472.698090,144.089508 481.867432,152.747238 491.000122,161.438232 
	C492.126221,162.509842 493.656830,163.156448 495.000000,164.000000 
z"/>
<path fill="#2E3192" opacity="1.000000" stroke="none" 
	d="
M248.000015,79.166656 
	C248.000229,97.083580 248.000443,115.000511 247.535583,133.434052 
	C236.493225,133.950684 225.915909,133.950684 215.000336,133.950684 
	C215.000336,126.278854 214.823730,119.457008 215.072098,112.650681 
	C215.203598,109.046989 214.185577,106.444885 211.530197,103.909088 
	C198.543106,91.506882 185.720505,78.931755 172.910400,66.345848 
	C171.503937,64.963989 170.549850,63.121704 169.485458,61.632233 
	C134.115829,97.022583 99.675758,131.482803 64.893707,166.285233 
	C99.005630,199.538727 134.077820,233.728317 169.556137,268.313812 
	C174.213120,263.178802 178.408539,258.273621 182.902359,253.659058 
	C190.804916,245.544205 199.017334,237.727554 206.799210,229.501495 
	C208.510956,227.692032 209.785309,224.716568 209.857208,222.237350 
	C210.180634,211.085205 210.010254,199.918335 209.986099,188.756866 
	C209.982269,186.988525 209.815292,185.220551 209.693832,182.874878 
	C195.655716,182.874878 182.088058,182.874878 168.343384,182.874878 
	C168.343384,171.369858 168.343384,160.476669 168.343384,149.166748 
	C195.122360,149.166748 221.561203,149.166748 248.000046,149.166748 
	C248.000412,182.750183 248.000763,216.333633 247.704193,250.541473 
	C241.718964,257.162781 236.111008,263.238403 230.327698,269.142242 
	C210.724533,289.154053 191.048035,309.094055 171.448975,329.109863 
	C170.401199,330.179932 169.805923,331.693085 169.000000,333.000000 
	C167.933334,333.000000 166.866653,333.000000 165.535324,332.662415 
	C164.435150,331.304871 163.676117,330.209229 162.753036,329.275879 
	C130.498718,296.662201 98.265465,264.027588 65.947983,231.476608 
	C45.910435,211.294281 25.755560,191.228287 5.599845,171.163818 
	C4.302426,169.872284 2.543982,169.043854 1.000000,168.000000 
	C1.000000,166.933334 1.000000,165.866653 1.337536,164.535538 
	C12.372354,154.091446 23.161423,144.006195 33.746315,133.711014 
	C51.502327,116.440979 69.156281,99.065651 86.802383,81.683060 
	C112.630997,56.240158 138.424942,30.762011 164.185028,5.249757 
	C165.366974,4.079172 166.072556,2.427569 167.000000,1.000001 
	C168.388885,1.000000 169.777786,1.000000 171.430786,1.345540 
	C172.796921,3.292085 173.689285,5.100319 175.034302,6.461180 
	C185.414185,16.963396 195.860336,27.400463 206.327316,37.816139 
	C220.198578,51.619377 234.107361,65.384918 248.000015,79.166656 
z"/>
<path fill="#000000" opacity="1.000000" stroke="none" 
	d="
M166.531342,1.000001 
	C166.072556,2.427569 165.366974,4.079172 164.185028,5.249757 
	C138.424942,30.762011 112.630997,56.240158 86.802383,81.683060 
	C69.156281,99.065651 51.502327,116.440979 33.746315,133.711014 
	C23.161423,144.006195 12.372354,154.091446 1.337536,164.135544 
	C1.000000,109.738991 1.000000,55.477978 1.000000,1.000000 
	C56.020702,1.000000 111.041695,1.000000 166.531342,1.000001 
z"/>
<path fill="#000000" opacity="1.000000" stroke="none" 
	d="
M1.000000,168.468658 
	C2.543982,169.043854 4.302426,169.872284 5.599845,171.163818 
	C25.755560,191.228287 45.910435,211.294281 65.947983,231.476608 
	C98.265465,264.027588 130.498718,296.662201 162.753036,329.275879 
	C163.676117,330.209229 164.435150,331.304871 165.135330,332.662415 
	C110.406097,333.000000 55.812199,333.000000 1.000000,333.000000 
	C1.000000,278.312622 1.000000,223.624969 1.000000,168.468658 
z"/>
<path fill="#000000" opacity="1.000000" stroke="none" 
	d="
M495.000000,163.531342 
	C493.656830,163.156448 492.126221,162.509842 491.000122,161.438232 
	C481.867432,152.747238 472.698090,144.089508 463.767059,135.193619 
	C456.914459,128.367996 450.603821,120.993309 443.676025,114.249161 
	C430.860687,101.773552 417.709351,89.643723 404.830139,77.232697 
	C400.889191,73.434959 397.577515,68.984276 393.637604,65.185310 
	C380.043457,52.077480 366.205414,39.222092 352.646698,26.078239 
	C344.361481,18.046530 336.417694,9.662622 328.660278,1.218448 
	C384.259674,1.000000 439.519348,1.000000 495.000000,1.000000 
	C495.000000,55.020695 495.000000,109.041687 495.000000,163.531342 
z"/>
<path fill="#000000" opacity="1.000000" stroke="none" 
	d="
M331.468658,333.000000 
	C331.050568,332.507568 330.908386,331.823669 331.179749,331.550507 
	C339.617706,323.055054 348.105377,314.609009 356.563080,306.133118 
	C359.551666,303.138123 362.452332,300.055359 365.443878,297.063385 
	C405.683105,256.818909 445.937988,216.590103 486.163269,176.331696 
	C489.062653,173.429886 491.762268,170.328415 494.777405,167.659882 
	C495.000000,222.926773 495.000000,277.853546 495.000000,333.000000 
	C440.645966,333.000000 386.291656,333.000000 331.468658,333.000000 
z"/>
<path fill="#000000" opacity="1.000000" stroke="none" 
	d="
M169.468658,333.000000 
	C169.805923,331.693085 170.401199,330.179932 171.448975,329.109863 
	C191.048035,309.094055 210.724533,289.154053 230.327698,269.142242 
	C236.111008,263.238403 241.718964,257.162781 247.704346,250.999695 
	C265.524780,268.577606 283.105652,286.265472 300.548035,304.088837 
	C309.716980,313.458069 318.643738,323.064331 327.339905,332.781799 
	C274.645782,333.000000 222.291550,333.000000 169.468658,333.000000 
z"/>
<path fill="#000000" opacity="1.000000" stroke="none" 
	d="
M248.306213,79.015228 
	C234.107361,65.384918 220.198578,51.619377 206.327316,37.816139 
	C195.860336,27.400463 185.414185,16.963396 175.034302,6.461180 
	C173.689285,5.100319 172.796921,3.292085 171.847443,1.345540 
	C222.354233,1.000000 272.708466,1.000000 323.531342,1.000000 
	C323.168793,2.669832 322.700928,4.701030 321.452667,5.956057 
	C297.227112,30.312891 272.910431,54.579041 248.306213,79.015228 
z"/>
<path fill="#000000" opacity="1.000000" stroke="none" 
	d="
M248.464752,149.098816 
	C221.561203,149.166748 195.122360,149.166748 168.343384,149.166748 
	C168.343384,160.476669 168.343384,171.369858 168.343384,182.874878 
	C182.088058,182.874878 195.655716,182.874878 209.693832,182.874878 
	C209.815292,185.220551 209.982269,186.988525 209.986099,188.756866 
	C210.010254,199.918335 210.180634,211.085205 209.857208,222.237350 
	C209.785309,224.716568 208.510956,227.692032 206.799210,229.501495 
	C199.017334,237.727554 190.804916,245.544205 182.902359,253.659058 
	C178.408539,258.273621 174.213120,263.178802 169.556137,268.313812 
	C134.077820,233.728317 99.005630,199.538727 64.893707,166.285233 
	C99.675758,131.482803 134.115829,97.022583 169.485458,61.632233 
	C170.549850,63.121704 171.503937,64.963989 172.910400,66.345848 
	C185.720505,78.931755 198.543106,91.506882 211.530197,103.909088 
	C214.185577,106.444885 215.203598,109.046989 215.072098,112.650681 
	C214.823730,119.457008 215.000336,126.278854 215.000336,133.950684 
	C225.915909,133.950684 236.493225,133.950684 247.535736,133.892303 
	C258.792358,133.833923 269.583740,133.833923 281.000061,133.833923 
	C281.000061,126.202965 280.802826,118.761650 281.121552,111.342514 
	C281.215851,109.147766 282.212524,106.462082 283.734924,104.942154 
	C295.956879,92.740211 308.375488,80.734177 320.809570,68.746674 
	C322.928070,66.704262 325.407806,65.036530 326.663147,64.037376 
	C355.671356,93.055656 384.638702,122.033081 412.360260,149.764252 
	C392.479767,149.764252 369.622559,149.764252 346.384888,149.764252 
	C346.384888,161.270386 346.384888,172.314484 346.384888,183.779404 
	C367.935120,183.779404 389.511353,183.779404 411.087585,183.779404 
	C411.334381,184.169281 411.581177,184.559158 411.827942,184.949036 
	C383.547241,212.588516 355.266510,240.227997 326.825653,268.024017 
	C315.544922,256.168549 304.533508,244.596100 293.521851,233.023926 
	C293.407074,232.903290 293.306580,232.757248 293.169189,232.671555 
	C285.462891,227.866058 285.807343,220.366379 285.907043,212.569214 
	C286.174927,191.610519 285.998535,170.646118 285.998535,149.030899 
	C273.438171,149.030899 261.183807,149.030899 248.464752,149.098816 
z"/>
</svg>